<svg id="Layer_1" data-name="Layer 1" xmlns="http://www.w3.org/2000/svg" viewBox="0 0 149.65 104.63"><defs><style>.cls-1{fill:#ea7326;}.cls-2{fill:#ea7325;}.cls-3{fill:#091d27;}.cls-4{fill:#0f1f29;}.cls-5{fill:#12222c;}.cls-6{fill:#13232d;}.cls-7{fill:#12212a;}.cls-8{fill:#e76a15;}.cls-9{fill:#eb6a14;}</style></defs><path class="cls-1" d="M796.74,494.92a10.67,10.67,0,0,1,2.77-.82c4.5-.05,9,0,13.51.09h21.1l2.45,0c5.41-.62,9.38,1.73,12,6.41,1.94,3.45,3.6,7.06,5.44,10.72,1.88-2.61,4.48-2.68,7.05-1.71a3.76,3.76,0,0,1,1.87,2.65c.07.59-1.18,1.58-2,2a31.49,31.49,0,0,0-4.17,1.8,31.71,31.71,0,0,1,3,2c4.82,4.1,6.44,9.41,5.68,15.65-.43,3.45-.47,6.95-1,10.38-.31,2-1.44,3.94-1.81,6a32,32,0,0,0-.5,6.91c.12,2.89-1,3.84-4.06,3.48a30.55,30.55,0,0,0-6.34.08c-2.64.24-3.44-.9-3.23-3.38.14-1.59,0-3.21,0-5.17a264.53,264.53,0,0,1-59.73,0c-.09,2.06-.28,3.94-.23,5.82s-.61,2.81-2.56,2.75c-2.7-.07-5.4-.23-8.09,0-2,.14-3-.65-2.94-2.6a24.57,24.57,0,0,0,0-4.29,32.38,32.38,0,0,0-1.24-4.48c-.15-.49-.53-.93-.56-1.41-.42-7.11-1.14-14.23-1-21.33,0-2.3,2.22-4.66,3.71-6.78a34,34,0,0,1,4.17-4.16c-1.77-.5-3.17-.82-4.52-1.3a2.2,2.2,0,0,1-.91-3.82c2-2.17,6.73-1.36,8.16,1.57,1.8-3.64,3.42-7.25,5.33-10.69,1.58-2.84,3.42-5.58,6.94-6.3Zm40.41,2.24c-.82-.36-1.62-1-2.44-1q-15.91-.11-31.83,0a7.46,7.46,0,0,0-2.48,1c-7,1.57-10.81,6.38-12.28,15.61h60.45C848.38,505.22,843.6,498.78,837.15,497.16Zm.85,36.49H798.78c.92,2.76,2,4.34,5.25,4.26,9.62-.26,19.26-.21,28.89,0C836,538,837.24,536.65,838,533.65Zm-41.91,4.92a5.34,5.34,0,0,0,.15-1.38c-1.57-4.85-9.7-10.3-14.55-9.5a3.54,3.54,0,0,0-2.24,2.41c-.58,5.17-.46,5.27,4.37,6.23C787.88,537.14,792,537.82,796.09,538.57Zm44-.44a11.13,11.13,0,0,0,2.51.19q6.35-1.16,12.68-2.44c4-.82,1.94-4.07,2.16-6.24s-1.93-2.18-3.26-2C847.93,528.43,843.31,531.75,840.13,538.13Z" transform="translate(-743.53 -494.09)"/><path class="cls-2" d="M842.78,582.64c-1.07,2.33-2.65,2.55-4.63,1.18-1.5-1-3-2.12-4.54-3a9,9,0,0,0-2.47-.61l-.38.75a10.46,10.46,0,0,0,1.41,1.68c1.4,1.16,2.88,2.22,4.33,3.32,1.29,1,2.49,2,1.31,3.78s-2.57,1.08-3.91.1c-1.87-1.38-3.67-2.88-5.64-4.08a14.12,14.12,0,0,0-3.56-1,18.42,18.42,0,0,0,1.89,3c1,1.11,2.47,1.84,3.38,3,.54.69.39,1.92.55,2.91-1,.12-2.22.68-2.93.28-1.73-1-3.14-2.56-4.85-3.6a14,14,0,0,0-3.61-1,21.57,21.57,0,0,0,1.67,3.37c.64.88,1.79,1.37,2.45,2.23.52.68,1.13,2,.84,2.43a3.4,3.4,0,0,1-2.62,1.41,34.45,34.45,0,0,1-5.5-1.88,11.54,11.54,0,0,0,.87-3.35c-.08-1.33-.26-3.14-1.11-3.84-2.78-2.3-5.9-4.15-8.85-6.24-1.21-.85-2.2-2.46-3.47-2.69-2.72-.47-5.47-.38-8.18-1.43-.88-.35-3,1.09-3.75,2.25a55.57,55.57,0,0,0-3.7,7.69c-.71,1.61-1.65,2.45-3.5,1.89-12.35-3.78-24-8.87-32.94-18.8-10.6-11.77-10.38-26.32.47-37.93a55.31,55.31,0,0,1,18.72-13l.66.62a53.75,53.75,0,0,1-4,4.13c-2.67,2.3-5.77,4.14-8.17,6.68-6.47,6.85-6.44,15.09.3,21.75C771,566.06,785,569.2,800.49,565c3.84-1,7.36-3.2,11.12-4.58.87-.32,2.13.42,3.21.68-2.11,2.17-4.51,4.13-6.21,6.59-1,1.46-1.67,4.12-1,5.51s3.1,2.19,4.9,2.61a7.18,7.18,0,0,0,4.34-.76,32.15,32.15,0,0,0,5.56-3.59c2.12-1.63,4.14-1.78,6.33-.24,4.21,3,8.47,5.85,12.62,8.89C842.05,580.64,842.31,581.79,842.78,582.64Z" transform="translate(-743.53 -494.09)"/><path class="cls-3" d="M816.08,563.64c5.62-5.5,11.34-5.24,17.52-.77,4.42,3.2,9.74,3.1,15,3.49,10.09.75,18.4-3.15,26.09-9.08a26.55,26.55,0,0,0,5-5.25c4-5.51,4.17-12-.15-17.24-2.59-3.15-6.1-5.51-9.17-8.26a37.26,37.26,0,0,1-4.58-4.73c11.42,2.12,25.5,16.33,27.13,27.61.54,3.66.28,8.08-1.29,11.3-7.34,15-19.18,24.93-35.29,29-2.75.69-5.94-.12-8.86-.62-2.23-.38-3-1.89-2.18-4.33a19.78,19.78,0,0,0,.48-4.6c-4.65-3.49-9.39-6.88-13.94-10.51-4-3.22-7.87-3.25-12.08-.31a28.78,28.78,0,0,1-6.72,3.25,3.13,3.13,0,0,1-2.89-.73c-.4-.53,0-2.2.59-2.89C812.37,567,814.28,565.39,816.08,563.64Z" transform="translate(-743.53 -494.09)"/><path class="cls-4" d="M806,583.81a80.2,80.2,0,0,1-4.7,7.3c-.34.43-2.16.1-2.9-.44a2.83,2.83,0,0,1-.82-2.58,21.6,21.6,0,0,1,3-5.2c.43-.54,1.8-.58,2.67-.41A10.9,10.9,0,0,1,806,583.81Z" transform="translate(-743.53 -494.09)"/><path class="cls-5" d="M811.19,588.54,806,594.65c-.87-.93-2.31-1.76-2.48-2.81-.32-1.9,3.09-6.21,4.29-5.81C808.83,586.38,809.66,587.37,811.19,588.54Z" transform="translate(-743.53 -494.09)"/><path class="cls-6" d="M798.77,583.31c-2,2.35-3.46,4.18-5.12,5.81a10.19,10.19,0,0,1-2.51-2.14,33.33,33.33,0,0,1,4-5.81C795.32,581,797.05,582.27,798.77,583.31Z" transform="translate(-743.53 -494.09)"/><path class="cls-7" d="M810.88,597.5c-.33-.51-1.6-1.83-1.37-2.24a34.45,34.45,0,0,1,3.68-4.63c.68.74,1.82,1.41,1.95,2.24C815.4,594.56,812.88,597.59,810.88,597.5Z" transform="translate(-743.53 -494.09)"/><path class="cls-8" d="M823.31,494.19h0Z" transform="translate(-743.53 -494.09)"/><path class="cls-8" d="M836.57,494.2l-2.45,0Z" transform="translate(-743.53 -494.09)"/><path class="cls-8" d="M796.74,494.92h0Z" transform="translate(-743.53 -494.09)"/><path class="cls-9" d="M837.15,497.16l-36.75-.06a7.46,7.46,0,0,1,2.48-1q15.92-.11,31.83,0C835.53,496.12,836.33,496.8,837.15,497.16Z" transform="translate(-743.53 -494.09)"/></svg>